<svg width="157" height="24" viewBox="0 0 157 24" fill="none" xmlns="http://www.w3.org/2000/svg">
<path d="M0.08 3.312C0.08 2.288 0.192 1.6 0.416 1.248C0.944 1.104 1.864 1.032 3.176 1.032C5.512 1.032 6.784 1.104 6.992 1.248C7.232 1.664 7.352 2.36 7.352 3.336C7.352 3.736 7.304 3.984 7.208 4.08C6.856 4.208 6.44 4.272 5.96 4.272C5.656 4.272 5.384 4.24 5.144 4.176C5.096 5.088 5.072 6.128 5.072 7.296C5.072 10.4 5.336 12.896 5.864 14.784C5.896 14.928 6.424 15 7.448 15C8.952 15 9.856 14.896 10.16 14.688L10.088 13.656C10.984 13.16 11.84 12.912 12.656 12.912C12.992 12.912 13.296 12.944 13.568 13.008C13.936 14.08 14.12 14.952 14.12 15.624C14.12 16.136 14.04 16.656 13.88 17.184C13.224 17.408 12.088 17.608 10.472 17.784C8.872 17.96 7.304 18.048 5.768 18.048C3.288 18.048 1.536 17.808 0.512 17.328C0.32 16.944 0.224 16.368 0.224 15.6C0.224 15.152 0.304 14.912 0.464 14.88C0.656 14.784 0.92 14.736 1.256 14.736C1.432 14.736 1.664 14.752 1.952 14.784C1.728 11.824 1.616 9.472 1.616 7.728C1.616 7.232 1.696 6.04 1.856 4.152C1.616 4.2 1.368 4.224 1.112 4.224C0.76 4.224 0.456 4.176 0.2 4.08C0.12 3.984 0.08 3.728 0.08 3.312ZM15.1681 13.032C15.1681 11.88 15.3361 10.768 15.6721 9.696C16.0241 8.608 16.5761 7.672 17.3281 6.888C18.0961 6.104 18.9921 5.712 20.0161 5.712C20.4801 5.712 20.8881 5.792 21.2401 5.952C21.6081 6.112 21.8881 6.312 22.0801 6.552C22.2881 6.776 22.4561 7.008 22.5841 7.248C22.7121 7.472 22.8001 7.664 22.8481 7.824C22.8961 7.984 22.9281 8.064 22.9441 8.064C22.9441 7.2 22.9361 6.632 22.9201 6.36C23.2401 6.088 23.5681 5.912 23.9041 5.832C24.2561 5.736 24.7361 5.688 25.3441 5.688C25.8241 5.688 26.2481 5.704 26.6161 5.736C27.0001 5.768 27.2881 5.808 27.4801 5.856C27.6721 5.904 27.8241 5.952 27.9361 6C28.0641 6.048 28.1441 6.08 28.1761 6.096L28.2241 6.12C28.2881 6.264 28.3201 6.712 28.3201 7.464C28.3201 8.232 28.2881 8.688 28.2241 8.832C28.1761 8.944 27.9201 9.048 27.4561 9.144C26.9921 9.224 26.5921 9.264 26.2561 9.264C26.0961 9.264 25.9201 9.248 25.7281 9.216C25.7761 9.312 25.8001 9.72 25.8001 10.44C25.8001 12.536 25.7281 13.696 25.5841 13.92C25.6961 13.872 25.8321 13.848 25.9921 13.848C26.6961 13.848 27.3841 13.92 28.0561 14.064C28.1841 14.16 28.2481 14.84 28.2481 16.104C28.2481 16.808 28.2241 17.256 28.1761 17.448C28.0641 17.624 27.7121 17.792 27.1201 17.952C26.5281 18.112 25.8561 18.192 25.1041 18.192C23.7441 18.192 22.9041 18.16 22.5841 18.096C22.4721 17.792 22.4161 17.536 22.4161 17.328C22.4161 17.2 22.4401 17.104 22.4881 17.04C22.2961 17.104 21.7521 17.344 20.8561 17.76C19.9601 18.176 19.3121 18.384 18.9121 18.384C17.6801 18.384 16.7441 17.864 16.1041 16.824C15.4801 15.784 15.1681 14.52 15.1681 13.032ZM18.1681 12.408C18.1681 13.304 18.4401 14.064 18.9841 14.688C19.5441 15.296 20.1281 15.6 20.7361 15.6C21.0721 15.6 21.4561 15.512 21.8881 15.336C22.3201 15.16 22.5521 15 22.5841 14.856C22.6321 14.12 22.6721 13.448 22.7041 12.84C22.7521 12.216 22.7841 11.744 22.8001 11.424C22.8321 11.088 22.8481 10.872 22.8481 10.776V10.488C22.8481 10.152 22.6241 9.824 22.1761 9.504C21.7441 9.168 21.2561 9 20.7121 9C19.9121 9 19.2881 9.368 18.8401 10.104C18.3921 10.824 18.1681 11.592 18.1681 12.408ZM29.6173 22.32C29.6173 21.568 29.6493 21.12 29.7133 20.976C30.1933 20.688 31.0173 20.544 32.1853 20.544C32.3773 20.544 32.5053 20.552 32.5693 20.568C32.5693 19.752 32.5533 18.512 32.5213 16.848C32.4893 15.184 32.4733 13.928 32.4733 13.08C32.4733 11.816 32.4893 10.864 32.5213 10.224C32.4093 10.288 32.1213 10.32 31.6573 10.32C30.7453 10.32 30.1613 10.24 29.9053 10.08C29.7773 9.984 29.7133 9.304 29.7133 8.04C29.7133 7.336 29.7373 6.888 29.7853 6.696C30.0893 6.2 30.9533 5.952 32.3773 5.952C33.8973 5.952 34.8173 5.984 35.1373 6.048C35.2173 6.352 35.2573 6.632 35.2573 6.888C35.2573 7.016 35.2493 7.088 35.2333 7.104C35.4733 7.024 35.9853 6.784 36.7693 6.384C37.5693 5.968 38.1693 5.76 38.5693 5.76C39.4973 5.76 40.3053 6.112 40.9933 6.816C41.6973 7.504 42.2013 8.312 42.5052 9.24C42.8093 10.168 42.9613 11.096 42.9613 12.024C42.9613 13.656 42.4813 15.104 41.5213 16.368C40.5773 17.616 39.2973 18.24 37.6813 18.24C37.1053 18.24 36.4813 18.144 35.8093 17.952C35.8093 17.984 35.8173 18.296 35.8333 18.888C35.8653 19.496 35.8813 20.136 35.8813 20.808C35.8813 22.296 35.8413 23.12 35.7613 23.28C35.2013 23.76 33.9773 24 32.0893 24C31.6893 24 31.3293 23.984 31.0093 23.952C30.6893 23.92 30.4493 23.88 30.2893 23.832C30.1453 23.784 30.0253 23.736 29.9293 23.688C29.8333 23.64 29.7773 23.6 29.7613 23.568L29.7133 23.544C29.6493 23.4 29.6173 22.992 29.6173 22.32ZM35.5693 9.864C35.5853 10.536 35.6013 11.232 35.6172 11.952C35.6333 12.672 35.6413 13.224 35.6413 13.608C35.6573 13.992 35.6733 14.288 35.6893 14.496C35.6893 14.784 35.8973 15.072 36.3133 15.36C36.7293 15.648 37.1933 15.792 37.7053 15.792C38.2493 15.792 38.6973 15.592 39.0493 15.192C39.4173 14.776 39.6573 14.328 39.7693 13.848C39.8973 13.352 39.9613 12.848 39.9613 12.336C39.9613 11.312 39.7053 10.504 39.1933 9.912C38.6973 9.304 38.1453 9 37.5373 9C37.1533 9 36.7293 9.112 36.2653 9.336C35.8013 9.544 35.5693 9.72 35.5693 9.864ZM44.0045 2.016C44.0045 1.216 44.2045 0.687999 44.6045 0.431999C45.4205 0.207999 46.3805 0.0959988 47.4845 0.0959988C48.5085 0.0959988 49.3245 0.207999 49.9325 0.431999C50.1405 0.639999 50.2445 1.088 50.2445 1.776C50.2445 2.528 50.1405 3.024 49.9325 3.264C49.5485 3.328 49.2365 3.36 48.9965 3.36C49.0125 4.128 49.0925 5.776 49.2365 8.304C49.4125 8.176 49.6685 7.992 50.0045 7.752C50.3565 7.512 50.6445 7.312 50.8685 7.152C51.0925 6.976 51.3245 6.784 51.5645 6.576C51.8045 6.368 51.9885 6.176 52.1165 6C52.2445 5.824 52.3085 5.656 52.3085 5.496C52.3085 5.352 52.2285 5.208 52.0685 5.064C51.9565 5.176 51.7565 5.232 51.4685 5.232C51.3565 5.152 51.2525 4.992 51.1565 4.752C51.0605 4.512 51.0125 4.288 51.0125 4.08C51.0125 3.888 51.0605 3.768 51.1565 3.72C52.1165 3.4 53.0125 3.24 53.8445 3.24C54.7565 3.24 55.6365 3.416 56.4845 3.768C56.5645 3.96 56.6045 4.184 56.6045 4.44C56.6045 5.112 56.4125 5.504 56.0285 5.616C55.9805 5.632 55.8765 5.64 55.7165 5.64C55.3165 5.64 55.0525 5.576 54.9245 5.448C54.9085 5.544 54.7565 5.768 54.4685 6.12C54.1965 6.472 53.7805 6.92 53.2205 7.464C52.6765 7.992 52.0925 8.504 51.4685 9C53.0045 9.64 54.3005 10.592 55.3565 11.856C56.4285 13.12 56.9645 14.016 56.9645 14.544C57.0925 14.48 57.2445 14.448 57.4205 14.448C57.5645 14.448 57.7645 14.496 58.0205 14.592C58.2925 14.72 58.4285 15.184 58.4285 15.984C58.4285 16.688 58.3085 17.224 58.0685 17.592C57.4445 17.88 56.7005 18.024 55.8365 18.024C55.1165 18.024 54.1485 17.896 52.9325 17.64C52.7405 17.352 52.6445 16.896 52.6445 16.272C52.6445 15.504 52.7565 14.96 52.9805 14.64C53.1085 14.56 53.2605 14.52 53.4365 14.52C53.5645 14.52 53.7005 14.544 53.8445 14.592C53.5565 13.072 52.0205 11.8 49.2365 10.776C49.2205 11 49.2045 11.368 49.1885 11.88C49.1725 12.376 49.1485 12.832 49.1165 13.248C49.1005 13.664 49.0605 14.032 48.9965 14.352C49.2365 14.208 49.6205 14.136 50.1485 14.136C50.4205 14.136 50.5885 14.176 50.6525 14.256C50.7645 14.32 50.8605 14.568 50.9405 15C51.0205 15.416 51.0605 15.864 51.0605 16.344C51.0605 17.08 50.9805 17.52 50.8205 17.664C49.9725 17.888 48.7805 18 47.2445 18C46.0445 18 45.2285 17.904 44.7965 17.712C44.5245 17.296 44.3885 16.624 44.3885 15.696C44.3885 15.024 44.5085 14.624 44.7485 14.496C44.9725 14.336 45.3245 14.256 45.8045 14.256C45.9325 14.256 46.0445 14.272 46.1405 14.304C46.1245 13.056 46.1005 11.816 46.0685 10.584C46.0525 9.336 46.0365 8.376 46.0205 7.704C46.0045 7.032 45.9965 6.464 45.9965 6C45.9965 5.536 46.0125 4.648 46.0445 3.336C45.7565 3.464 45.4765 3.528 45.2045 3.528C44.8845 3.528 44.6125 3.44 44.3885 3.264C44.1325 2.912 44.0045 2.496 44.0045 2.016ZM59.297 16.008C59.297 15.192 59.345 14.728 59.441 14.616C59.633 14.504 59.873 14.432 60.161 14.4C60.353 14.368 60.769 14.352 61.409 14.352C61.313 13.344 61.265 12.248 61.265 11.064C61.265 9.768 61.345 8.944 61.505 8.592C60.721 8.592 60.201 8.56 59.945 8.496C59.961 8.064 60.017 7.608 60.113 7.128C60.145 6.92 60.241 6.512 60.401 5.904C60.993 5.792 61.985 5.736 63.377 5.736C63.937 5.736 64.449 5.768 64.913 5.832C65.393 5.896 65.753 5.976 65.993 6.072C66.249 6.152 66.377 6.232 66.377 6.312C66.409 6.312 66.425 6.6 66.425 7.176C66.425 8.088 66.345 8.664 66.185 8.904C66.121 9 65.929 9.048 65.609 9.048C65.017 9.048 64.641 9.008 64.481 8.928C64.305 10.048 64.217 11.504 64.217 13.296C64.217 14.032 64.241 14.416 64.289 14.448C64.385 14.432 64.521 14.424 64.697 14.424C65.273 14.424 65.737 14.512 66.089 14.688C66.137 14.752 66.161 14.896 66.161 15.12C66.161 15.52 66.105 16 65.993 16.56C65.881 17.12 65.721 17.504 65.513 17.712C65.321 17.904 64.697 18 63.641 18C61.129 18 59.737 17.768 59.465 17.304C59.353 17.096 59.297 16.664 59.297 16.008ZM61.217 1.056C61.217 0.607999 61.457 0.383999 61.937 0.383999C62.337 0.383999 62.769 0.503999 63.233 0.743999C63.569 0.408 64.017 0.24 64.577 0.24C64.929 0.24 65.241 0.36 65.513 0.599999C65.785 0.839999 65.921 1.168 65.921 1.584C65.921 1.792 65.873 1.992 65.777 2.184C65.697 2.376 65.609 2.536 65.513 2.664C65.417 2.792 65.257 2.944 65.033 3.12C64.809 3.28 64.633 3.4 64.505 3.48C64.393 3.544 64.185 3.664 63.881 3.84C63.577 4 63.385 4.104 63.305 4.152C62.681 3.688 62.177 3.168 61.793 2.592C61.409 2 61.217 1.488 61.217 1.056ZM73.3016 15.984C73.3016 15.376 73.4216 14.928 73.6616 14.64C74.0616 14.448 74.4456 14.352 74.8136 14.352C74.6216 12.752 74.5256 11.144 74.5256 9.528C74.5256 7.976 74.6216 6.432 74.8136 4.896C74.7016 4.848 74.5096 4.808 74.2376 4.776C73.9816 4.744 73.7896 4.688 73.6616 4.608C73.5336 4.416 73.4696 3.96 73.4696 3.24C73.4696 2.536 73.5336 2.088 73.6616 1.896C74.0296 1.448 74.9416 1.224 76.3976 1.224C77.7896 1.224 78.6536 1.432 78.9896 1.848C79.2616 2.504 79.3976 3.176 79.3976 3.864C79.3976 4.168 79.3496 4.4 79.2536 4.56C78.9176 4.72 78.6376 4.808 78.4136 4.824C78.6376 5.064 79.2056 5.608 80.1176 6.456C81.0296 7.288 81.6216 7.872 81.8936 8.208C82.1656 7.872 82.7496 7.28 83.6456 6.432C84.5576 5.584 85.1256 5.04 85.3496 4.8C85.0296 4.736 84.8136 4.672 84.7016 4.608C84.5736 4.416 84.5096 3.96 84.5096 3.24C84.5096 2.536 84.5736 2.088 84.7016 1.896C85.0536 1.432 85.8216 1.2 87.0056 1.2C87.6456 1.2 88.2856 1.272 88.9256 1.416C89.5656 1.544 90.0216 1.704 90.2936 1.896C90.4856 2.136 90.5816 2.544 90.5816 3.12C90.5816 3.744 90.4856 4.224 90.2936 4.56C89.9096 4.752 89.5896 4.848 89.3336 4.848C89.2536 4.848 89.1336 4.832 88.9736 4.8C89.1656 6.096 89.2616 7.504 89.2616 9.024C89.2616 10.272 89.1656 12.08 88.9736 14.448C89.0376 14.432 89.1416 14.424 89.2856 14.424C89.6056 14.424 89.9416 14.512 90.2936 14.688C90.3736 14.896 90.4136 15.24 90.4136 15.72C90.4136 16.936 90.2136 17.624 89.8136 17.784C89.6376 17.928 88.9096 18 87.6296 18C86.2376 18 85.3416 17.784 84.9416 17.352C84.6856 17.08 84.5576 16.624 84.5576 15.984C84.5576 15.36 84.6856 14.912 84.9416 14.64C85.3096 14.448 85.6936 14.352 86.0936 14.352C85.9016 12.752 85.8056 10.68 85.8056 8.136C85.2776 8.84 84.5976 9.544 83.7656 10.248C82.9336 10.952 82.3096 11.304 81.8936 11.304C81.4776 11.304 80.8456 10.96 79.9976 10.272C79.1656 9.568 78.4936 8.864 77.9816 8.16C77.9016 10.896 77.8056 12.992 77.6936 14.448C77.7576 14.432 77.8616 14.424 78.0056 14.424C78.3256 14.424 78.6616 14.512 79.0136 14.688C79.2856 15.056 79.4216 15.552 79.4216 16.176C79.4216 16.72 79.3016 17.12 79.0616 17.376C78.6776 17.808 77.9016 18.024 76.7336 18.024C76.0456 18.024 75.3816 17.952 74.7416 17.808C74.1016 17.664 73.7416 17.512 73.6616 17.352C73.4216 17.064 73.3016 16.608 73.3016 15.984ZM92.4181 13.032C92.4181 11.88 92.5861 10.768 92.9221 9.696C93.2741 8.608 93.8261 7.672 94.5781 6.888C95.3461 6.104 96.2421 5.712 97.2661 5.712C97.7301 5.712 98.1381 5.792 98.4901 5.952C98.8581 6.112 99.1381 6.312 99.3301 6.552C99.5381 6.776 99.7061 7.008 99.8341 7.248C99.9621 7.472 100.05 7.664 100.098 7.824C100.146 7.984 100.178 8.064 100.194 8.064C100.194 7.2 100.186 6.632 100.17 6.36C100.49 6.088 100.818 5.912 101.154 5.832C101.506 5.736 101.986 5.688 102.594 5.688C103.074 5.688 103.498 5.704 103.866 5.736C104.25 5.768 104.538 5.808 104.73 5.856C104.922 5.904 105.074 5.952 105.186 6C105.314 6.048 105.394 6.08 105.426 6.096L105.474 6.12C105.538 6.264 105.57 6.712 105.57 7.464C105.57 8.232 105.538 8.688 105.474 8.832C105.426 8.944 105.17 9.048 104.706 9.144C104.242 9.224 103.842 9.264 103.506 9.264C103.346 9.264 103.17 9.248 102.978 9.216C103.026 9.312 103.05 9.72 103.05 10.44C103.05 12.536 102.978 13.696 102.834 13.92C102.946 13.872 103.082 13.848 103.242 13.848C103.946 13.848 104.634 13.92 105.306 14.064C105.434 14.16 105.498 14.84 105.498 16.104C105.498 16.808 105.474 17.256 105.426 17.448C105.314 17.624 104.962 17.792 104.37 17.952C103.778 18.112 103.106 18.192 102.354 18.192C100.994 18.192 100.154 18.16 99.8341 18.096C99.7221 17.792 99.6661 17.536 99.6661 17.328C99.6661 17.2 99.6901 17.104 99.7381 17.04C99.5461 17.104 99.0021 17.344 98.1061 17.76C97.2101 18.176 96.5621 18.384 96.1621 18.384C94.9301 18.384 93.9941 17.864 93.3541 16.824C92.7301 15.784 92.4181 14.52 92.4181 13.032ZM95.4181 12.408C95.4181 13.304 95.6901 14.064 96.2341 14.688C96.7941 15.296 97.3781 15.6 97.9861 15.6C98.3221 15.6 98.7061 15.512 99.1381 15.336C99.5701 15.16 99.8021 15 99.8341 14.856C99.8821 14.12 99.9221 13.448 99.9541 12.84C100.002 12.216 100.034 11.744 100.05 11.424C100.082 11.088 100.098 10.872 100.098 10.776V10.488C100.098 10.152 99.8741 9.824 99.4261 9.504C98.9941 9.168 98.5061 9 97.9621 9C97.1621 9 96.5381 9.368 96.0901 10.104C95.6421 10.824 95.4181 11.592 95.4181 12.408ZM107.491 7.512C107.491 6.856 107.539 6.392 107.635 6.12C108.547 5.848 109.435 5.712 110.299 5.712C111.339 5.712 112.139 5.928 112.699 6.36C112.683 6.632 112.675 7.04 112.675 7.584L112.771 7.392C112.819 7.264 112.907 7.112 113.035 6.936C113.179 6.744 113.347 6.56 113.539 6.384C113.731 6.192 114.003 6.032 114.355 5.904C114.707 5.776 115.099 5.712 115.531 5.712C116.747 5.712 117.779 6.232 118.627 7.272C118.515 7.976 118.235 8.512 117.787 8.88C117.339 9.248 116.891 9.448 116.443 9.48C115.851 9.064 115.283 8.856 114.739 8.856C113.155 8.856 112.363 9.864 112.363 11.88C112.363 12.568 112.451 13.32 112.627 14.136C112.659 14.056 112.883 14.016 113.299 14.016C113.779 14.016 114.075 14.072 114.187 14.184C114.379 14.488 114.475 14.984 114.475 15.672C114.475 16.712 114.291 17.392 113.923 17.712C113.107 17.888 112.123 17.976 110.971 17.976C109.083 17.976 107.987 17.8 107.683 17.448C107.635 17.256 107.611 16.768 107.611 15.984C107.611 14.864 107.659 14.264 107.755 14.184C107.867 14.04 108.179 13.968 108.691 13.968C109.059 13.968 109.331 14.024 109.507 14.136C109.363 13.768 109.291 12.528 109.291 10.416C109.291 9.712 109.315 9.312 109.363 9.216C109.171 9.248 108.995 9.264 108.835 9.264C108.259 9.264 107.859 9.12 107.635 8.832C107.539 8.592 107.491 8.152 107.491 7.512ZM118.77 2.016C118.77 1.216 118.97 0.687999 119.37 0.431999C120.186 0.207999 121.146 0.0959988 122.25 0.0959988C123.274 0.0959988 124.09 0.207999 124.698 0.431999C124.906 0.639999 125.01 1.088 125.01 1.776C125.01 2.528 124.906 3.024 124.698 3.264C124.314 3.328 124.002 3.36 123.762 3.36C123.778 4.128 123.858 5.776 124.002 8.304C124.178 8.176 124.434 7.992 124.77 7.752C125.122 7.512 125.41 7.312 125.634 7.152C125.858 6.976 126.09 6.784 126.33 6.576C126.57 6.368 126.754 6.176 126.882 6C127.01 5.824 127.074 5.656 127.074 5.496C127.074 5.352 126.994 5.208 126.834 5.064C126.722 5.176 126.522 5.232 126.234 5.232C126.122 5.152 126.018 4.992 125.922 4.752C125.826 4.512 125.778 4.288 125.778 4.08C125.778 3.888 125.826 3.768 125.922 3.72C126.882 3.4 127.778 3.24 128.61 3.24C129.522 3.24 130.402 3.416 131.25 3.768C131.33 3.96 131.37 4.184 131.37 4.44C131.37 5.112 131.178 5.504 130.794 5.616C130.746 5.632 130.642 5.64 130.482 5.64C130.082 5.64 129.818 5.576 129.69 5.448C129.674 5.544 129.522 5.768 129.234 6.12C128.962 6.472 128.546 6.92 127.986 7.464C127.442 7.992 126.858 8.504 126.234 9C127.77 9.64 129.066 10.592 130.122 11.856C131.194 13.12 131.73 14.016 131.73 14.544C131.858 14.48 132.01 14.448 132.186 14.448C132.33 14.448 132.53 14.496 132.786 14.592C133.058 14.72 133.194 15.184 133.194 15.984C133.194 16.688 133.074 17.224 132.834 17.592C132.21 17.88 131.466 18.024 130.602 18.024C129.882 18.024 128.914 17.896 127.698 17.64C127.506 17.352 127.41 16.896 127.41 16.272C127.41 15.504 127.522 14.96 127.746 14.64C127.874 14.56 128.026 14.52 128.202 14.52C128.33 14.52 128.466 14.544 128.61 14.592C128.322 13.072 126.786 11.8 124.002 10.776C123.986 11 123.97 11.368 123.954 11.88C123.938 12.376 123.914 12.832 123.882 13.248C123.866 13.664 123.826 14.032 123.762 14.352C124.002 14.208 124.386 14.136 124.914 14.136C125.186 14.136 125.354 14.176 125.418 14.256C125.53 14.32 125.626 14.568 125.706 15C125.786 15.416 125.826 15.864 125.826 16.344C125.826 17.08 125.746 17.52 125.586 17.664C124.738 17.888 123.546 18 122.01 18C120.81 18 119.994 17.904 119.562 17.712C119.29 17.296 119.154 16.624 119.154 15.696C119.154 15.024 119.274 14.624 119.514 14.496C119.738 14.336 120.09 14.256 120.57 14.256C120.698 14.256 120.81 14.272 120.906 14.304C120.89 13.056 120.866 11.816 120.834 10.584C120.818 9.336 120.802 8.376 120.786 7.704C120.77 7.032 120.762 6.464 120.762 6C120.762 5.536 120.778 4.648 120.81 3.336C120.522 3.464 120.242 3.528 119.97 3.528C119.65 3.528 119.378 3.44 119.154 3.264C118.898 2.912 118.77 2.496 118.77 2.016ZM134.159 12.984C134.159 11.176 134.807 9.52 136.103 8.016C137.415 6.512 138.879 5.76 140.495 5.76C141.487 5.76 142.335 6.064 143.039 6.672C143.743 7.28 144.095 8.072 144.095 9.048C144.095 10.184 143.623 11.16 142.679 11.976C141.751 12.776 140.519 13.176 138.983 13.176C138.103 13.176 137.487 13.04 137.135 12.768C137.151 13.536 137.423 14.152 137.951 14.616C138.479 15.064 139.087 15.288 139.775 15.288C140.671 15.288 141.399 14.936 141.959 14.232C141.959 14.104 141.983 13.968 142.031 13.824C142.735 13.248 143.495 12.96 144.311 12.96C144.471 12.96 144.591 12.968 144.671 12.984C145.727 13.56 146.375 14.504 146.615 15.816C146.599 15.944 146.535 16.08 146.423 16.224C146.327 16.368 146.223 16.496 146.111 16.608C145.999 16.704 145.839 16.824 145.631 16.968C145.423 17.096 145.255 17.192 145.127 17.256C145.015 17.32 144.839 17.416 144.599 17.544C144.375 17.672 144.247 17.744 144.215 17.76C144.119 17.76 144.039 17.752 143.975 17.736C143.911 17.704 143.847 17.664 143.783 17.616C143.735 17.552 143.703 17.512 143.687 17.496C143.671 17.464 143.639 17.4 143.591 17.304C143.543 17.192 143.511 17.128 143.495 17.112C142.311 17.896 141.039 18.288 139.679 18.288C138.159 18.288 136.855 17.8 135.767 16.824C134.695 15.848 134.159 14.568 134.159 12.984ZM137.903 10.176C137.903 10.704 138.287 10.968 139.055 10.968C139.631 10.968 140.183 10.832 140.711 10.56C141.239 10.288 141.503 9.952 141.503 9.552C141.503 9.28 141.407 9 141.215 8.712C141.039 8.408 140.751 8.256 140.351 8.256C139.855 8.256 139.319 8.456 138.743 8.856C138.183 9.256 137.903 9.696 137.903 10.176ZM146.991 6.6C146.991 6.248 147.039 6.024 147.135 5.928C147.423 5.88 147.799 5.856 148.263 5.856H148.791V1.344C149.623 1.28 150.159 1.248 150.399 1.248C150.639 1.248 151.127 1.28 151.863 1.344L152.103 5.904C153.863 5.984 154.871 6.096 155.127 6.24C155.367 6.656 155.487 7.296 155.487 8.16C155.487 8.512 155.439 8.736 155.343 8.832C154.847 8.896 154.279 8.928 153.639 8.928C153.431 8.928 153.119 8.928 152.703 8.928C152.287 8.912 151.975 8.904 151.767 8.904C151.767 9.432 151.759 10.096 151.743 10.896C151.743 11.696 151.743 12.264 151.743 12.6C151.743 13.848 151.823 14.616 151.983 14.904C152.159 15.176 152.623 15.312 153.375 15.312C153.663 15.312 153.903 15.296 154.095 15.264L153.951 14.76L156.159 14.256C156.319 14.72 156.399 15.264 156.399 15.888C156.399 16.928 156.295 17.584 156.087 17.856C154.519 18.08 153.215 18.192 152.175 18.192C150.815 18.192 149.919 18 149.487 17.616C149.295 17.44 149.143 17.208 149.031 16.92C148.919 16.632 148.839 16.224 148.791 15.696C148.759 15.152 148.735 14.616 148.719 14.088C148.703 13.544 148.679 12.76 148.647 11.736C148.615 10.712 148.575 9.744 148.527 8.832C148.015 8.784 147.623 8.68 147.351 8.52C147.111 8.104 146.991 7.464 146.991 6.6Z" fill="white"/>
</svg>
